<?xml version="1.0" encoding="utf-8"?>
<!-- Svg Vector Icons : http://www.onlinewebfonts.com/icon -->
<!DOCTYPE svg PUBLIC "-//W3C//DTD SVG 1.1//EN" "http://www.w3.org/Graphics/SVG/1.1/DTD/svg11.dtd">
<svg version="1.1" xmlns="http://www.w3.org/2000/svg" xmlns:xlink="http://www.w3.org/1999/xlink" x="0px" y="0px" viewBox="0 0 256 256" enable-background="new 0 0 256 256" xml:space="preserve">
<metadata> Svg Vector Icons : http://www.onlinewebfonts.com/icon </metadata>
<g><g><path fill="#000000" d="M69.1,95.4c-17,0-30.8,13.8-30.8,30.8c0,17,13.8,30.8,30.8,30.8s30.8-13.8,30.8-30.8C99.9,109.2,86.1,95.4,69.1,95.4z M69.1,149.3c-12.8,0-23.2-10.4-23.2-23.2c0-12.8,10.4-23.2,23.2-23.2s23.2,10.4,23.2,23.2C92.3,138.9,81.9,149.3,69.1,149.3z"/><path fill="#000000" d="M17.8,127.6c0-60.8,49.5-110.1,110.3-110.1c60.8,0,110.3,49.6,110.3,110.4c0,37.1-18.5,71.6-49.5,92.1l4.2,6.4c33.1-21.9,52.9-58.7,52.9-98.4c0-65-52.9-117.9-117.9-117.9C63.1,10.1,10,63,10,128c0,64.7,53.1,117.4,116.8,117.9v-0.8h116.7v-7.6H128.1C67.3,237.5,17.8,188.4,17.8,127.6z"/><path fill="#000000" d="M128.1,215.8c17,0,30.8-13.8,30.8-30.8c0-17-13.8-30.8-30.8-30.8c-17,0-30.8,13.8-30.8,30.8C97.4,202,111.1,215.8,128.1,215.8z M128.1,161.9c12.8,0,23.2,10.4,23.2,23.2s-10.4,23.2-23.2,23.2c-12.8,0-23.2-10.4-23.2-23.2C105,172.3,115.3,161.9,128.1,161.9z"/><path fill="#000000" d="M187.1,156.8c17,0,30.8-13.8,30.8-30.8c0-17-13.8-30.8-30.8-30.8s-30.8,13.8-30.8,30.8C156.3,143.1,170.1,156.8,187.1,156.8z M187.1,103c12.8,0,23.2,10.4,23.2,23.2c0,12.8-10.4,23.2-23.2,23.2s-23.2-10.4-23.2-23.2C163.9,113.3,174.3,103,187.1,103z"/><path fill="#000000" d="M128.1,97.9c17,0,30.8-13.8,30.8-30.8c0-17-13.8-30.8-30.8-30.8c-17,0-30.8,13.8-30.8,30.8C97.3,84.1,111.1,97.9,128.1,97.9z M128.1,44c12.8,0,23.2,10.4,23.2,23.2s-10.4,23.2-23.2,23.2c-12.8,0-23.2-10.4-23.2-23.2C104.9,54.4,115.3,44,128.1,44z"/></g></g>
</svg>